<svg xmlns="http://www.w3.org/2000/svg" xmlns:xlink="http://www.w3.org/1999/xlink" width="60" zoomAndPan="magnify" viewBox="0 0 45 48" height="64" preserveAspectRatio="xMidYMid meet" version="1.0"><defs><clipPath id="bfff81328e"><path d="M 2.640625 3 L 42.3125 3 L 42.3125 44 L 2.640625 44 Z M 2.640625 3 " clip-rule="nonzero"/></clipPath></defs><g clip-path="url(#bfff81328e)"><path fill="#df6751" d="M 24.730469 35.265625 C 22.417969 37.359375 19.898438 39.152344 17.167969 40.65625 C 16.4375 41.082031 15.679688 41.480469 14.898438 41.847656 C 13.488281 41.261719 12.164062 40.527344 10.925781 39.636719 C 9.6875 38.746094 8.566406 37.730469 7.558594 36.582031 C 6.554688 35.433594 5.695312 34.1875 4.976562 32.84375 C 4.257812 31.496094 3.703125 30.085938 3.308594 28.613281 C 4.105469 29.105469 4.9375 29.578125 5.769531 30.011719 C 11.6875 33.214844 18.007812 34.96875 24.730469 35.265625 Z M 13.386719 31.296875 C 10.308594 25.371094 8.65625 19.066406 8.433594 12.390625 C 8.433594 11.449219 8.433594 10.503906 8.433594 9.574219 C 7.519531 10.492188 6.703125 11.488281 5.984375 12.5625 C 5.269531 13.640625 4.660156 14.777344 4.164062 15.96875 C 3.667969 17.164062 3.292969 18.398438 3.039062 19.664062 C 2.78125 20.933594 2.652344 22.214844 2.648438 23.507812 C 2.648438 24.371094 2.703125 25.226562 2.820312 26.078125 C 3.523438 26.558594 4.242188 27.011719 4.972656 27.441406 C 7.636719 29.050781 10.445312 30.335938 13.40625 31.296875 Z M 25.089844 5.738281 C 25.902344 5.246094 26.734375 4.753906 27.585938 4.320312 C 26.117188 3.933594 24.628906 3.714844 23.113281 3.667969 C 21.597656 3.621094 20.097656 3.746094 18.609375 4.046875 C 17.125 4.34375 15.691406 4.808594 14.3125 5.433594 C 12.929688 6.0625 11.640625 6.835938 10.4375 7.761719 C 10.4375 8.613281 10.324219 9.460938 10.304688 10.3125 C 10.261719 13.421875 10.558594 16.496094 11.195312 19.539062 C 14.78125 13.886719 19.414062 9.285156 25.089844 5.738281 Z M 39.210938 16.890625 C 40.042969 17.328125 40.875 17.800781 41.667969 18.289062 C 41.273438 16.816406 40.71875 15.40625 40 14.0625 C 39.285156 12.714844 38.421875 11.46875 37.417969 10.320312 C 36.414062 9.175781 35.292969 8.15625 34.050781 7.265625 C 32.8125 6.378906 31.488281 5.640625 30.078125 5.058594 C 29.296875 5.421875 28.542969 5.820312 27.8125 6.25 C 25.082031 7.753906 22.5625 9.550781 20.25 11.636719 C 26.972656 11.9375 33.292969 13.6875 39.210938 16.890625 Z M 36.546875 37.515625 C 37.464844 36.597656 38.285156 35.597656 39.007812 34.515625 C 39.730469 33.433594 40.339844 32.292969 40.839844 31.089844 C 41.335938 29.886719 41.710938 28.648438 41.964844 27.375 C 42.21875 26.097656 42.347656 24.808594 42.347656 23.507812 C 42.351562 22.648438 42.292969 21.789062 42.179688 20.9375 C 41.472656 20.472656 40.753906 20.015625 40.023438 19.578125 C 37.359375 17.992188 34.546875 16.734375 31.59375 15.796875 C 34.671875 21.722656 36.320312 28.023438 36.546875 34.699219 C 36.675781 35.644531 36.675781 36.589844 36.546875 37.515625 Z M 19.910156 41.296875 C 19.097656 41.789062 18.265625 42.28125 17.414062 42.714844 C 18.878906 43.105469 20.367188 43.320312 21.882812 43.367188 C 23.398438 43.414062 24.902344 43.289062 26.386719 42.988281 C 27.875 42.691406 29.304688 42.230469 30.6875 41.601562 C 32.066406 40.972656 33.359375 40.199219 34.558594 39.273438 C 34.558594 38.425781 34.671875 37.574219 34.691406 36.722656 C 34.734375 33.613281 34.4375 30.539062 33.804688 27.496094 C 30.214844 33.140625 25.582031 37.734375 19.910156 41.277344 Z M 19.910156 41.296875 " fill-opacity="1" fill-rule="nonzero"/></g></svg>